#!OML:ASF F:\VICON\USERDATA\INSTALL\rory3\rory3.ASF
:FULLY-SPECIFIED
:DEGREES
17
root 4.2426 17.6667 1.83098 18.3802 3.17493 -1.85586
lowerback -8.49313 1.09496 12.7927
upperback -12.8348 1.25525 1.60479
thorax -9.01532 -0.449468 -5.36491
lowerneck -2.41488 18.639 10.7097
upperneck 7.02614 24.0233 4.62727
head 3.41725 12.3208 0.894608
rclavicle 3.37934e-015 -1.59028e-014
rhumerus 3.20653 -22.722 30.2147
rradius 118.195
rwrist -73.5386
rhand -1.95547 -42.8268
rfingers 7.12502
rthumb 23.7161 -71.3835
lclavicle 3.37934e-015 -1.59028e-014
lhumerus 35.9766 35.7667 -6.38659
lradius 27.8087
lwrist 31.3705
lhand -22.3267 -16.8757
lfingers 7.12502
lthumb 4.09326 13.0647
rfemur -3.81937 8.89676 -2.04646
rtibia 14.8098
rfoot 21.4461 -15.4699
rtoes -18.6045
lfemur -16.473 -0.807929 -26.6279
ltibia 13.1783
lfoot -13.3292 8.23174
ltoes 12.4235
18
root 4.24126 17.667 1.83023 18.3768 3.09257 -1.78144
lowerback -8.36408 1.09896 12.6911
upperback -12.8813 1.28661 1.58266
thorax -9.13389 -0.434937 -5.33377
lowerneck -2.17134 18.6154 10.8346
upperneck 6.84345 24.0377 4.43233
head 3.35326 12.317 0.788505
rclavicle -8.54774e-015 2.54444e-014
rhumerus 3.07768 -22.7358 30.2766
rradius 118.225
rwrist -73.4299
rhand -2.39277 -42.603
rfingers 7.12502
rthumb 23.2966 -71.2135
lclavicle -8.54774e-015 2.54444e-014
lhumerus 36 35.8582 -6.27443
lradius 27.8189
lwrist 31.7668
lhand -22.8468 -16.8352
lfingers 7.12502
lthumb 3.59107 13.1143
rfemur -3.97357 8.90451 -2.17905
rtibia 14.9814
rfoot 21.3807 -15.4048
rtoes -19.0029
lfemur -16.4292 -0.804565 -26.7215
ltibia 13.0636
lfoot -13.1739 8.32125
ltoes 12.106
19
root 4.24032 17.6685 1.83187 18.3639 3.04731 -1.78924
lowerback -8.22702 1.10186 12.712
upperback -12.927 1.31426 1.55567
thorax -9.26216 -0.434328 -5.37559
lowerneck -2.29578 18.579 10.9745
upperneck 6.9304 23.9649 4.36937
head 3.43348 12.2854 0.773678
rclavicle -1.05356e-014 7.95139e-016
rhumerus 2.93771 -22.7008 30.3228
rradius 118.274
rwrist -73.4104
rhand -2.66904 -42.3442
rfingers 7.12502
rthumb 23.0316 -70.988
lclavicle -1.05356e-014 7.95139e-016
lhumerus 36.0972 35.9909 -6.12007
lradius 27.8688
lwrist 32.1834
lhand -23.1576 -16.6501
lfingers 7.12502
lthumb 3.29086 13.3043
rfemur -4.17597 9.03515 -2.20019
rtibia 15.2976
rfoot 21.2029 -15.4107
rtoes -19.0261
lfemur -16.2715 -0.879826 -26.7002
ltibia 12.8011
lfoot -12.9907 8.45936
ltoes 11.8483
20
root 4.23813 17.6641 1.83322 18.3535 3.02894 -1.82803
lowerback -8.12474 1.09084 12.7568
upperback -12.9502 1.31625 1.5458
thorax -9.35014 -0.444423 -5.41194
lowerneck -2.71813 18.5548 11.1352
upperneck 7.26189 23.8534 4.35088
head 3.65219 12.2461 0.818953
rclavicle 1.98785e-016 -1.74931e-014
rhumerus 2.88967 -22.7559 30.2585
rradius 118.243
rwrist -73.3309
rhand -2.85157 -42.251
rfingers 7.12502
rthumb 22.8564 -70.9166
lclavicle 1.98785e-016 -1.74931e-014
lhumerus 35.5328 35.5827 -6.83666
lradius 28.2303
lwrist 33.7028
lhand -23.4451 -16.0656
lfingers 7.12502
lthumb 3.01324 13.8928
rfemur -4.35082 9.11852 -2.18485
rtibia 15.6039
rfoot 21.1555 -15.3474
rtoes -18.9889
lfemur -16.1083 -0.841559 -26.691
ltibia 12.5219
lfoot -12.8298 8.63213
ltoes 10.4927
21
root 4.23352 17.659 1.83889 18.3709 2.98567 -1.77911
lowerback -8.11436 1.07946 12.6502
upperback -13.0155 1.30937 1.52583
thorax -9.43035 -0.446621 -5.37466
lowerneck -2.84529 18.585 11.1591
upperneck 7.49391 23.8523 4.53969
head 3.73576 12.2615 0.901809
rclavicle 1.15295e-014 -3.10104e-014
rhumerus 2.9549 -22.8396 30.1558
rradius 118.141
rwrist -73.1396
rhand -2.40292 -42.4232
rfingers 7.12502
rthumb 23.2869 -71.0349
lclavicle 1.15295e-014 -3.10104e-014
lhumerus 35.0608 35.173 -7.45914
lradius 28.5055
lwrist 35.0954
lhand -23.4504 -15.8011
lfingers 7.12502
lthumb 3.00812 14.1574
rfemur -4.47879 9.18736 -2.25498
rtibia 15.8437
rfoot 21.0632 -15.1963
rtoes -19.0341
lfemur -15.9771 -0.777716 -26.7762
ltibia 12.277
lfoot -12.7104 8.73931
ltoes 9.35089
22
root 4.2304 17.665 1.84857 18.366 2.86559 -1.71804
lowerback -8.12846 1.09347 12.4769
upperback -13.0294 1.32968 1.51863
thorax -9.4274 -0.421245 -5.28678
lowerneck -2.8648 18.6918 10.9063
upperneck 7.49307 23.9811 4.9132
head 3.65288 12.3325 1.04045
rclavicle 7.35503e-015 -1.35174e-014
rhumerus 2.96969 -23.0567 30.1832
rradius 118.085
rwrist -73.0091
rhand -1.73283 -42.7039
rfingers 7.12502
rthumb 23.9296 -71.2328
lclavicle 7.35503e-015 -1.35174e-014
lhumerus 34.7911 34.9668 -7.80129
lradius 28.6735
lwrist 36.2752
lhand -23.2598 -16.2126
lfingers 7.12502
lthumb 3.19225 13.7433
rfemur -4.61164 9.36493 -2.33811
rtibia 16.0609
rfoot 20.7914 -15.025
rtoes -18.8692
lfemur -15.7759 -0.960504 -26.7855
ltibia 11.971
lfoot -12.6173 8.79865
ltoes 10.5645
23
root 4.22364 17.671 1.85844 18.3212 2.67456 -1.73049
lowerback -8.10234 1.1347 12.3094
upperback -13.0157 1.39216 1.54766
thorax -9.4081 -0.371182 -5.16296
lowerneck -2.9314 18.7417 10.7255
upperneck 7.46521 24.0394 5.0846
head 3.60639 12.3623 1.11402
rclavicle 1.05356e-014 -3.65764e-014
rhumerus 2.84103 -23.1986 30.3824
rradius 118.115
rwrist -72.7816
rhand -1.61296 -42.8526
rfingers 7.12502
rthumb 24.0446 -71.3664
lclavicle 1.05356e-014 -3.65764e-014
lhumerus 34.622 34.8571 -7.95112
lradius 28.8871
lwrist 37.4525
lhand -23.3589 -16.5987
lfingers 7.12502
lthumb 3.09649 13.3585
rfemur -4.73621 9.81496 -2.3719
rtibia 16.1664
rfoot 20.9055 -15.2998
rtoes -19.0481
lfemur -15.5786 -1.09779 -26.7142
ltibia 11.7315
lfoot -12.5217 8.93817
ltoes 11.7998
24
root 4.21773 17.6723 1.86536 18.2903 2.63709 -1.65456
lowerback -7.98024 1.1108 12.1317
upperback -13.1372 1.39293 1.53979
thorax -9.61612 -0.371034 -5.07424
lowerneck -2.74324 18.7545 10.7268
upperneck 7.38694 24.0814 5.14953
head 3.53524 12.3821 1.10642
rclavicle -2.04748e-014 4.6118e-014
rhumerus 2.76867 -23.0652 30.4833
rradius 118.14
rwrist -72.3609
rhand -1.87657 -42.9874
rfingers 7.12502
rthumb 23.7918 -71.5343
lclavicle -2.04748e-014 4.6118e-014
lhumerus 34.4987 34.6072 -8.04792
lradius 29.1317
lwrist 38.3275
lhand -24.454 -16.5602
lfingers 7.12502
lthumb 2.03888 13.4098
rfemur -4.71488 10.1928 -2.46734
rtibia 16.1295
rfoot 21.3854 -15.8179
rtoes -19.7425
lfemur -15.5001 -1.10971 -26.7653
ltibia 11.6558
lfoot -12.5162 8.94918
ltoes 12.2405
25
root 4.21714 17.6771 1.86889 18.3302 2.75319 -1.63657
lowerback -7.89609 1.06445 12.1079
upperback -13.2886 1.35867 1.54331
thorax -9.85114 -0.404363 -5.05696
lowerneck -2.49301 18.8021 10.6825
upperneck 7.24155 24.1813 5.25323
head 3.4181 12.4277 1.10473
rclavicle 5.96354e-016 -1.11319e-014
rhumerus 2.80126 -23.0113 30.4705
rradius 118.11
rwrist -72.2469
rhand -2.38071 -43.1498
rfingers 7.12502
rthumb 23.3082 -71.7589
lclavicle 5.96354e-016 -1.11319e-014
lhumerus 34.3905 34.4038 -8.12584
lradius 29.3405
lwrist 39.0461
lhand -25.9034 -16.32
lfingers 7.12502
lthumb 0.638998 13.6588
rfemur -4.70508 10.3509 -2.4547
rtibia 16.0546
rfoot 21.6108 -16.017
rtoes -20.0922
lfemur -15.494 -1.16876 -26.7444
ltibia 11.5741
lfoot -12.5264 8.872
ltoes 12.4678
26
root 4.21742 17.6844 1.87392 18.4638 2.85114 -1.79455
lowerback -8.04632 1.08639 12.2415
upperback -13.3062 1.3678 1.59155
thorax -9.78914 -0.406478 -5.07563
lowerneck -2.45381 18.828 10.6863
upperneck 7.08586 24.233 5.16693
head 3.36908 12.444 1.06694
rclavicle 1.98785e-016 6.36111e-015
rhumerus 2.73168 -23.1901 30.5114
rradius 118.048
rwrist -72.3221
rhand -2.78969 -43.1875
rfingers 7.12502
rthumb 22.9158 -71.8457
lclavicle 1.98785e-016 6.36111e-015
lhumerus 34.7157 34.8938 -7.62928
lradius 29.2766
lwrist 38.9155
lhand -26.2377 -16.285
lfingers 7.12502
lthumb 0.316189 13.6945
rfemur -4.82628 10.5008 -2.28255
rtibia 15.9489
rfoot 21.7086 -16.0819
rtoes -20.1672
lfemur -15.5733 -1.29135 -26.5316
ltibia 11.4706
lfoot -12.4186 8.93379
ltoes 12.2435
27
root 4.22097 17.6876 1.88345 18.5292 2.92841 -1.88238
lowerback -8.20156 1.11799 12.3596
upperback -13.2484 1.37862 1.58893
thorax -9.63268 -0.401184 -5.14208
lowerneck -2.53519 18.8189 10.7219
upperneck 6.89598 24.2268 4.98527
head 3.34677 12.4283 1.00755
rclavicle -2.20651e-014 1.90833e-014
rhumerus 2.49943 -23.441 30.6759
rradius 118.009
rwrist -72.3463
rhand -2.61888 -43.153
rfingers 7.12502
rthumb 23.0797 -71.7908
lclavicle -2.20651e-014 1.90833e-014
lhumerus 35.1439 35.5011 -7.09324
lradius 29.1292
lwrist 38.4201
lhand -26.2889 -16.4638
lfingers 7.12502
lthumb 0.266689 13.5158
rfemur -4.79951 10.5765 -2.20368
rtibia 15.8012
rfoot 21.856 -16.1132
rtoes -20.0529
lfemur -15.57 -1.35137 -26.4327
ltibia 11.4194
lfoot -12.3536 8.97845
ltoes 11.9027
28
root 4.22608 17.6857 1.89845 18.5171 2.96511 -1.85499
lowerback -8.35784 1.13248 12.3851
upperback -13.2149 1.36825 1.56046
thorax -9.50478 -0.401794 -5.18572
lowerneck -2.54149 18.8245 10.6416
upperneck 6.73234 24.2459 4.97008
head 3.28086 12.4292 0.999484
rclavicle -2.5842e-015 9.54166e-015
rhumerus 2.32003 -23.6416 30.8548
rradius 117.977
rwrist -72.4243
rhand -2.55122 -43.0997
rfingers 7.12502
rthumb 23.1446 -71.7294
lclavicle -2.5842e-015 9.54166e-015
lhumerus 35.532 35.8961 -6.64511
lradius 28.968
lwrist 37.8717
lhand -26.3818 -16.6896
lfingers 7.12502
lthumb 0.176967 13.2901
rfemur -4.65007 10.5767 -2.24558
rtibia 15.6747
rfoot 21.9927 -16.0858
rtoes -19.4455
lfemur -15.427 -1.3507 -26.4852
ltibia 11.3314
lfoot -12.3994 8.96569
ltoes 11.7765
29
root 4.23113 17.6816 1.91428 18.5571 2.96384 -1.69723
lowerback -8.55036 1.13479 12.2434
upperback -13.2681 1.34707 1.52225
thorax -9.45466 -0.400434 -5.14687
lowerneck -2.45647 18.8429 10.5937
upperneck 6.77595 24.2783 5.05864
head 3.26241 12.4488 1.02392
rclavicle -1.03368e-014 1.98785e-014
rhumerus 2.36945 -23.7055 30.8204
rradius 117.868
rwrist -72.3156
rhand -2.7245 -43.0643
rfingers 7.12502
rthumb 22.9783 -71.7148
lclavicle -1.03368e-014 1.98785e-014
lhumerus 35.8407 36.084 -6.25878
lradius 28.7995
lwrist 37.2569
lhand -25.8717 -16.8736
lfingers 7.12502
lthumb 0.669685 13.105
rfemur -4.53123 10.4958 -2.44605
rtibia 15.5445
rfoot 22.1076 -16.0413
rtoes -19.0226
lfemur -15.3529 -1.44409 -26.6634
ltibia 11.2367
lfoot -12.4553 8.97827
ltoes 11.8919
